<?xml version="1.0" standalone="no"?><!DOCTYPE svg PUBLIC "-//W3C//DTD SVG 1.1//EN" "http://www.w3.org/Graphics/SVG/1.1/DTD/svg11.dtd"><svg t="1702023184350" class="icon" viewBox="0 0 1024 1024" version="1.1" xmlns="http://www.w3.org/2000/svg" p-id="1800" xmlns:xlink="http://www.w3.org/1999/xlink" width="200" height="200"><path d="M512 46.545455c257.070545 0 465.454545 208.384 465.454545 465.454545s-208.384 465.454545-465.454545 465.454545S46.545455 769.070545 46.545455 512 254.929455 46.545455 512 46.545455z m0 69.818181a395.636364 395.636364 0 1 0 0 791.272728 395.636364 395.636364 0 0 0 0-791.272728z" fill="#6D6E75" p-id="1801"></path><path d="M170.123636 520.378182a270.010182 270.010182 0 0 1 353.931637-13.079273 193.256727 193.256727 0 0 0 257.489454-13.358545l31.650909-31.464728A34.909091 34.909091 0 0 1 862.487273 512l-31.697455 31.464727a263.074909 263.074909 0 0 1-350.487273 18.152728 200.192 200.192 0 0 0-262.423272 9.774545l-7.773091 7.307636a34.909091 34.909091 0 0 1-47.755637-50.967272l7.819637-7.307637z" fill="#2E74FF" p-id="1802"></path></svg>